<svg width="70" height="70" viewBox="0 0 70 70" fill="none" xmlns="http://www.w3.org/2000/svg">
<rect width="70" height="70" fill="#F5F5F5"/>
<g id="Hydra-Desktop-UserView">
<g clip-path="url(#clip0_0_1)">
<rect x="-123" y="-843" width="1440" height="1024" rx="70" fill="#302C42"/>
<g id="Hero-Section">
<g id="Rectangle 6" filter="url(#filter0_d_0_1)">
<rect x="-39" y="-49" width="1272" height="167" rx="83.5" fill="url(#paint0_radial_0_1)" shape-rendering="crispEdges"/>
</g>
<g id="Location-Icon">
<g id="Page-1">
<g id="location">
<path id="Combined-Shape" fill-rule="evenodd" clip-rule="evenodd" d="M34.9999 5.83334C46.2757 5.83334 55.4166 14.9742 55.4166 26.25C55.4166 29.6593 54.5833 32.8717 53.1039 35.6983L34.9999 67.0833L17.3153 36.4595C15.5749 33.4542 14.5833 29.9693 14.5833 26.25C14.5833 14.9742 23.7241 5.83334 34.9999 5.83334ZM34.9999 11.6667C26.9458 11.6667 20.4166 18.1959 20.4166 26.25C20.4166 28.566 20.9509 30.7882 21.9619 32.7943L22.4519 33.6893L34.9999 55.4167L47.6365 33.5362C48.9071 31.3423 49.5833 28.8555 49.5833 26.25C49.5833 18.1959 43.0541 11.6667 34.9999 11.6667ZM34.9999 17.5C39.8324 17.5 43.7499 21.4175 43.7499 26.25C43.7499 31.0825 39.8324 35 34.9999 35C30.1674 35 26.2499 31.0825 26.2499 26.25C26.2499 21.4175 30.1674 17.5 34.9999 17.5ZM34.9999 23.3333C33.3891 23.3333 32.0833 24.6392 32.0833 26.25C32.0833 27.8608 33.3891 29.1667 34.9999 29.1667C36.6107 29.1667 37.9166 27.8608 37.9166 26.25C37.9166 24.6392 36.6107 23.3333 34.9999 23.3333Z" fill="#C0B7E8"/>
</g>
</g>
</g>
</g>
</g>
</g>
<defs>
<filter id="filter0_d_0_1" x="-43" y="-49" width="1280" height="175" filterUnits="userSpaceOnUse" color-interpolation-filters="sRGB">
<feFlood flood-opacity="0" result="BackgroundImageFix"/>
<feColorMatrix in="SourceAlpha" type="matrix" values="0 0 0 0 0 0 0 0 0 0 0 0 0 0 0 0 0 0 127 0" result="hardAlpha"/>
<feOffset dy="4"/>
<feGaussianBlur stdDeviation="2"/>
<feComposite in2="hardAlpha" operator="out"/>
<feColorMatrix type="matrix" values="0 0 0 0 0.753504 0 0 0 0 0.719097 0 0 0 0 0.908333 0 0 0 0.01 0"/>
<feBlend mode="normal" in2="BackgroundImageFix" result="effect1_dropShadow_0_1"/>
<feBlend mode="normal" in="SourceGraphic" in2="effect1_dropShadow_0_1" result="shape"/>
</filter>
<radialGradient id="paint0_radial_0_1" cx="0" cy="0" r="1" gradientUnits="userSpaceOnUse" gradientTransform="translate(597 41) rotate(-0.540517) scale(636.028 4844.48)">
<stop stop-color="#3A3456" stop-opacity="0.95"/>
<stop offset="1" stop-color="#211E2E"/>
</radialGradient>
<clipPath id="clip0_0_1">
<rect x="-123" y="-843" width="1440" height="1024" rx="70" fill="white"/>
</clipPath>
</defs>
</svg>
